<mxfile modified="2023-01-10T03:03:44.069Z" host="Electron" agent="5.0 (Windows NT 10.0; Win64; x64) AppleWebKit/537.36 (KHTML, like Gecko) draw.io/20.3.0 Chrome/104.0.5112.114 Electron/20.1.3 Safari/537.36" etag="vlNbc_2m2saUgUJmsO8E" compressed="false" version="20.3.0" type="device">
  <diagram id="lnHkyb4ijmLfIaTf1oII" name="Testing/Process">
    <mxGraphModel dx="782" dy="515" grid="1" gridSize="10" guides="1" tooltips="1" connect="1" arrows="1" fold="1" page="1" pageScale="1" pageWidth="850" pageHeight="1100" math="0" shadow="0">
      <root>
        <mxCell id="WMpTFZEWbzHxxc1Yh5aS-0" />
        <mxCell id="F7m3nazQZWmYAk_U2Sx9-2" value="About" parent="WMpTFZEWbzHxxc1Yh5aS-0" />
        <mxCell id="F7m3nazQZWmYAk_U2Sx9-0" value="Title/Page" parent="WMpTFZEWbzHxxc1Yh5aS-0" visible="0" />
        <mxCell id="xAgPbRv_ltSVWjLPTkQ9-28" value="&lt;font style=&quot;font-size: 12px ; font-weight: normal&quot;&gt;&lt;i&gt;Diagram: Base&amp;nbsp;&lt;/i&gt;&lt;span style=&quot;font-style: italic&quot;&gt;System&amp;nbsp;&lt;/span&gt;&lt;i&gt;Logical Module - Sequence - Develop &amp;amp; Publish Organisation &amp;amp; Group Terms&lt;/i&gt;&lt;/font&gt;" style="text;strokeColor=none;fillColor=none;html=1;fontSize=12;fontStyle=1;verticalAlign=middle;align=left;shadow=0;glass=0;comic=0;opacity=30;fontColor=#808080;" parent="F7m3nazQZWmYAk_U2Sx9-0" vertex="1">
          <mxGeometry x="120" y="868" width="520" height="20" as="geometry" />
        </mxCell>
        <mxCell id="F7m3nazQZWmYAk_U2Sx9-1" value="Title/Diagram" parent="WMpTFZEWbzHxxc1Yh5aS-0" />
        <mxCell id="WMpTFZEWbzHxxc1Yh5aS-1" value="Diagram" parent="WMpTFZEWbzHxxc1Yh5aS-0" />
        <mxCell id="xAgPbRv_ltSVWjLPTkQ9-3" style="edgeStyle=orthogonalEdgeStyle;rounded=0;jumpStyle=arc;orthogonalLoop=1;jettySize=auto;html=1;entryX=0.5;entryY=0;entryDx=0;entryDy=0;fontSize=9;" parent="WMpTFZEWbzHxxc1Yh5aS-1" source="xAgPbRv_ltSVWjLPTkQ9-4" target="xAgPbRv_ltSVWjLPTkQ9-7" edge="1">
          <mxGeometry relative="1" as="geometry">
            <Array as="points" />
          </mxGeometry>
        </mxCell>
        <mxCell id="xAgPbRv_ltSVWjLPTkQ9-4" value="start" style="shape=mxgraph.bpmn.shape;html=1;verticalLabelPosition=bottom;labelBackgroundColor=#ffffff;verticalAlign=top;align=center;perimeter=ellipsePerimeter;outlineConnect=0;outline=standard;symbol=general;fontSize=10;" parent="WMpTFZEWbzHxxc1Yh5aS-1" vertex="1">
          <mxGeometry x="160" y="200" width="20" height="20" as="geometry" />
        </mxCell>
        <mxCell id="xAgPbRv_ltSVWjLPTkQ9-6" value="Stakeholder" style="swimlane;fontSize=12;strokeColor=#B3B3B3;dashed=1;collapsible=0;startSize=40;" parent="WMpTFZEWbzHxxc1Yh5aS-1" vertex="1">
          <mxGeometry x="120" y="240" width="100" height="620" as="geometry">
            <mxRectangle x="40" y="90" width="160" height="23" as="alternateBounds" />
          </mxGeometry>
        </mxCell>
        <mxCell id="xAgPbRv_ltSVWjLPTkQ9-7" value="User posts a desire, issue or complaint" style="shape=ext;rounded=1;html=1;whiteSpace=wrap;fontSize=12;" parent="xAgPbRv_ltSVWjLPTkQ9-6" vertex="1">
          <mxGeometry x="10" y="50" width="80" height="40" as="geometry" />
        </mxCell>
        <mxCell id="xAgPbRv_ltSVWjLPTkQ9-11" value="StakeholderÂ &#xa;Analyst" style="swimlane;fontSize=12;strokeColor=#B3B3B3;dashed=1;collapsible=0;startSize=40;" parent="WMpTFZEWbzHxxc1Yh5aS-1" vertex="1">
          <mxGeometry x="220" y="240" width="190" height="620" as="geometry">
            <mxRectangle x="200" y="90" width="100" height="23" as="alternateBounds" />
          </mxGeometry>
        </mxCell>
        <mxCell id="xAgPbRv_ltSVWjLPTkQ9-29" value="Similar to previous&lt;br&gt;or new?" style="shape=mxgraph.bpmn.shape;html=1;verticalLabelPosition=bottom;labelBackgroundColor=#ffffff;verticalAlign=top;align=center;perimeter=rhombusPerimeter;background=gateway;outlineConnect=0;outline=none;symbol=exclusiveGw;fontSize=10;spacingTop=-8;" parent="xAgPbRv_ltSVWjLPTkQ9-11" vertex="1">
          <mxGeometry x="80" y="70" width="35" height="40" as="geometry" />
        </mxCell>
        <mxCell id="xAgPbRv_ltSVWjLPTkQ9-13" value="Link to existing work item" style="shape=ext;rounded=1;html=1;whiteSpace=wrap;fontSize=12;" parent="xAgPbRv_ltSVWjLPTkQ9-11" vertex="1">
          <mxGeometry x="10" y="130" width="80" height="40" as="geometry" />
        </mxCell>
        <mxCell id="xAgPbRv_ltSVWjLPTkQ9-19" value="Y" style="rounded=0;jumpStyle=arc;orthogonalLoop=1;jettySize=auto;html=1;endArrow=classic;endFill=1;strokeColor=#82b366;fontSize=11;fillColor=#d5e8d4;strokeWidth=3;entryX=0.5;entryY=0;entryDx=0;entryDy=0;" parent="xAgPbRv_ltSVWjLPTkQ9-11" target="xAgPbRv_ltSVWjLPTkQ9-13" edge="1">
          <mxGeometry relative="1" as="geometry">
            <Array as="points">
              <mxPoint x="50" y="90" />
            </Array>
            <mxPoint x="80" y="90" as="sourcePoint" />
            <mxPoint x="360" y="30" as="targetPoint" />
          </mxGeometry>
        </mxCell>
        <mxCell id="xAgPbRv_ltSVWjLPTkQ9-8" value="Log new Work Item" style="shape=ext;rounded=1;html=1;whiteSpace=wrap;fontSize=12;" parent="xAgPbRv_ltSVWjLPTkQ9-11" vertex="1">
          <mxGeometry x="100" y="130" width="80" height="40" as="geometry" />
        </mxCell>
        <mxCell id="xAgPbRv_ltSVWjLPTkQ9-31" style="edgeStyle=elbowEdgeStyle;rounded=0;jumpStyle=arc;orthogonalLoop=1;jettySize=auto;html=1;endArrow=classic;endFill=1;strokeColor=#82b366;fontSize=11;fillColor=#d5e8d4;strokeWidth=3;entryX=0.5;entryY=0;entryDx=0;entryDy=0;" parent="xAgPbRv_ltSVWjLPTkQ9-11" target="xAgPbRv_ltSVWjLPTkQ9-8" edge="1">
          <mxGeometry relative="1" as="geometry">
            <mxPoint x="110" y="90" as="sourcePoint" />
            <mxPoint x="310" y="440" as="targetPoint" />
            <Array as="points">
              <mxPoint x="140" y="110" />
              <mxPoint x="150" y="90" />
            </Array>
          </mxGeometry>
        </mxCell>
        <mxCell id="xAgPbRv_ltSVWjLPTkQ9-15" value="Test Analyst" style="swimlane;fontSize=12;strokeColor=#B3B3B3;dashed=1;collapsible=0;startSize=40;" parent="WMpTFZEWbzHxxc1Yh5aS-1" vertex="1">
          <mxGeometry x="410" y="240" width="100" height="620" as="geometry">
            <mxRectangle x="300" y="90" width="120" height="23" as="alternateBounds" />
          </mxGeometry>
        </mxCell>
        <mxCell id="xAgPbRv_ltSVWjLPTkQ9-16" value="Add acceptance test definitions" style="shape=ext;rounded=1;html=1;whiteSpace=wrap;fontSize=12;" parent="xAgPbRv_ltSVWjLPTkQ9-15" vertex="1">
          <mxGeometry x="9" y="170" width="82" height="40" as="geometry" />
        </mxCell>
        <mxCell id="xAgPbRv_ltSVWjLPTkQ9-62" value="" style="shape=image;html=1;verticalAlign=top;verticalLabelPosition=bottom;labelBackgroundColor=#ffffff;imageAspect=0;aspect=fixed;image=https://cdn0.iconfinder.com/data/icons/zondicons/20/mood-happy-outline-128.png" parent="xAgPbRv_ltSVWjLPTkQ9-15" vertex="1">
          <mxGeometry x="40" y="580" width="28" height="28" as="geometry" />
        </mxCell>
        <mxCell id="xAgPbRv_ltSVWjLPTkQ9-63" value="" style="shape=image;html=1;verticalAlign=top;verticalLabelPosition=bottom;labelBackgroundColor=#ffffff;imageAspect=0;aspect=fixed;image=https://cdn0.iconfinder.com/data/icons/zondicons/20/mood-happy-outline-128.png" parent="xAgPbRv_ltSVWjLPTkQ9-15" vertex="1">
          <mxGeometry x="-110" y="580" width="28" height="28" as="geometry" />
        </mxCell>
        <mxCell id="xAgPbRv_ltSVWjLPTkQ9-64" value="" style="shape=image;html=1;verticalAlign=top;verticalLabelPosition=bottom;labelBackgroundColor=#ffffff;imageAspect=0;aspect=fixed;image=https://cdn0.iconfinder.com/data/icons/zondicons/20/mood-happy-outline-128.png" parent="xAgPbRv_ltSVWjLPTkQ9-15" vertex="1">
          <mxGeometry x="-260" y="580" width="28" height="28" as="geometry" />
        </mxCell>
        <mxCell id="xAgPbRv_ltSVWjLPTkQ9-21" value="Developer" style="swimlane;fontSize=12;strokeColor=#B3B3B3;dashed=1;collapsible=0;startSize=40;" parent="WMpTFZEWbzHxxc1Yh5aS-1" vertex="1">
          <mxGeometry x="510" y="240" width="100" height="620" as="geometry">
            <mxRectangle x="300" y="90" width="120" height="23" as="alternateBounds" />
          </mxGeometry>
        </mxCell>
        <mxCell id="xAgPbRv_ltSVWjLPTkQ9-22" value="Commit Tests" style="shape=ext;rounded=1;html=1;whiteSpace=wrap;fontSize=12;" parent="xAgPbRv_ltSVWjLPTkQ9-21" vertex="1">
          <mxGeometry x="10" y="389" width="80" height="40" as="geometry" />
        </mxCell>
        <mxCell id="xAgPbRv_ltSVWjLPTkQ9-17" value="Complete?" style="shape=mxgraph.bpmn.shape;html=1;verticalLabelPosition=bottom;labelBackgroundColor=#ffffff;verticalAlign=top;align=center;perimeter=rhombusPerimeter;background=gateway;outlineConnect=0;outline=none;symbol=exclusiveGw;fontSize=10;spacingTop=-11;" parent="xAgPbRv_ltSVWjLPTkQ9-21" vertex="1">
          <mxGeometry x="30" y="210" width="40" height="40" as="geometry" />
        </mxCell>
        <mxCell id="xAgPbRv_ltSVWjLPTkQ9-10" value="Develop Test Data" style="shape=ext;rounded=1;html=1;whiteSpace=wrap;fontSize=12;" parent="xAgPbRv_ltSVWjLPTkQ9-21" vertex="1">
          <mxGeometry x="10" y="270" width="80" height="40" as="geometry" />
        </mxCell>
        <mxCell id="xAgPbRv_ltSVWjLPTkQ9-25" value="Y" style="edgeStyle=none;rounded=0;jumpStyle=arc;orthogonalLoop=1;jettySize=auto;html=1;endArrow=classic;endFill=1;strokeColor=#82b366;fontSize=11;fillColor=#d5e8d4;strokeWidth=3;" parent="xAgPbRv_ltSVWjLPTkQ9-21" source="xAgPbRv_ltSVWjLPTkQ9-17" target="xAgPbRv_ltSVWjLPTkQ9-10" edge="1">
          <mxGeometry x="0.3333" y="10" relative="1" as="geometry">
            <mxPoint as="offset" />
          </mxGeometry>
        </mxCell>
        <mxCell id="xAgPbRv_ltSVWjLPTkQ9-37" value="Commit Code" style="shape=ext;rounded=1;html=1;whiteSpace=wrap;fontSize=12;" parent="xAgPbRv_ltSVWjLPTkQ9-21" vertex="1">
          <mxGeometry x="10" y="510" width="80" height="40" as="geometry" />
        </mxCell>
        <mxCell id="xAgPbRv_ltSVWjLPTkQ9-9" style="edgeStyle=orthogonalEdgeStyle;rounded=0;orthogonalLoop=1;jettySize=auto;html=1;entryX=0.5;entryY=0;entryDx=0;entryDy=0;exitX=1;exitY=0.5;exitDx=0;exitDy=0;fontSize=9;fillColor=#d5e8d4;strokeColor=#82b366;strokeWidth=3;" parent="WMpTFZEWbzHxxc1Yh5aS-1" source="xAgPbRv_ltSVWjLPTkQ9-7" target="xAgPbRv_ltSVWjLPTkQ9-29" edge="1">
          <mxGeometry relative="1" as="geometry">
            <mxPoint x="190" y="350" as="targetPoint" />
            <Array as="points">
              <mxPoint x="318" y="310" />
            </Array>
          </mxGeometry>
        </mxCell>
        <mxCell id="xAgPbRv_ltSVWjLPTkQ9-18" style="rounded=0;jumpStyle=arc;orthogonalLoop=1;jettySize=auto;html=1;endArrow=classic;endFill=1;strokeColor=#82b366;fontSize=11;entryX=0.5;entryY=0;entryDx=0;entryDy=0;strokeWidth=3;fillColor=#d5e8d4;exitX=1;exitY=0.5;exitDx=0;exitDy=0;" parent="WMpTFZEWbzHxxc1Yh5aS-1" source="xAgPbRv_ltSVWjLPTkQ9-16" target="xAgPbRv_ltSVWjLPTkQ9-17" edge="1">
          <mxGeometry relative="1" as="geometry">
            <mxPoint x="530" y="380" as="sourcePoint" />
            <Array as="points">
              <mxPoint x="560" y="430" />
            </Array>
          </mxGeometry>
        </mxCell>
        <mxCell id="xAgPbRv_ltSVWjLPTkQ9-34" value="" style="rounded=0;jumpStyle=arc;orthogonalLoop=1;jettySize=auto;html=1;endArrow=classic;endFill=1;strokeColor=#82b366;fontSize=11;exitX=1;exitY=0.5;exitDx=0;exitDy=0;entryX=0.5;entryY=0;entryDx=0;entryDy=0;strokeWidth=3;fillColor=#d5e8d4;" parent="WMpTFZEWbzHxxc1Yh5aS-1" source="xAgPbRv_ltSVWjLPTkQ9-8" target="xAgPbRv_ltSVWjLPTkQ9-16" edge="1">
          <mxGeometry x="-0.3333" y="10" relative="1" as="geometry">
            <Array as="points">
              <mxPoint x="460" y="390" />
            </Array>
            <mxPoint x="390" y="480" as="sourcePoint" />
            <mxPoint x="429" y="480" as="targetPoint" />
            <mxPoint as="offset" />
          </mxGeometry>
        </mxCell>
        <mxCell id="xAgPbRv_ltSVWjLPTkQ9-36" value="Continuous&#xa;Build&#xa;Agent" style="swimlane;fontSize=12;strokeColor=#B3B3B3;dashed=1;collapsible=0;startSize=40;" parent="WMpTFZEWbzHxxc1Yh5aS-1" vertex="1">
          <mxGeometry x="610" y="240" width="100" height="620" as="geometry">
            <mxRectangle x="300" y="90" width="120" height="23" as="alternateBounds" />
          </mxGeometry>
        </mxCell>
        <mxCell id="xAgPbRv_ltSVWjLPTkQ9-49" value="Pass?" style="shape=mxgraph.bpmn.shape;html=1;verticalLabelPosition=bottom;labelBackgroundColor=#ffffff;verticalAlign=top;align=center;perimeter=rhombusPerimeter;background=gateway;outlineConnect=0;outline=none;symbol=exclusiveGw;fontSize=10;spacingTop=-8;" parent="xAgPbRv_ltSVWjLPTkQ9-36" vertex="1">
          <mxGeometry x="30" y="510" width="40" height="40" as="geometry" />
        </mxCell>
        <mxCell id="xAgPbRv_ltSVWjLPTkQ9-57" value="Develop Test Scripts &lt;i&gt;for TAs&lt;/i&gt;" style="shape=ext;rounded=1;html=1;whiteSpace=wrap;fontSize=12;" parent="xAgPbRv_ltSVWjLPTkQ9-36" vertex="1">
          <mxGeometry x="-90" y="330" width="80" height="40" as="geometry" />
        </mxCell>
        <mxCell id="xAgPbRv_ltSVWjLPTkQ9-59" value="Publish Package &lt;i&gt;for Stakeholders&lt;/i&gt;" style="shape=ext;rounded=1;html=1;whiteSpace=wrap;fontSize=12;" parent="xAgPbRv_ltSVWjLPTkQ9-36" vertex="1">
          <mxGeometry x="10" y="580" width="80" height="40" as="geometry" />
        </mxCell>
        <mxCell id="xAgPbRv_ltSVWjLPTkQ9-46" value="Y" style="edgeStyle=none;rounded=0;orthogonalLoop=1;jettySize=auto;html=1;exitX=0.5;exitY=1;exitDx=0;exitDy=0;strokeColor=#82b366;strokeWidth=3;fillColor=#d5e8d4;endFill=1;entryX=0.5;entryY=0;entryDx=0;entryDy=0;" parent="xAgPbRv_ltSVWjLPTkQ9-36" source="xAgPbRv_ltSVWjLPTkQ9-49" target="xAgPbRv_ltSVWjLPTkQ9-59" edge="1">
          <mxGeometry x="0.3333" y="10" relative="1" as="geometry">
            <mxPoint x="70" y="489" as="sourcePoint" />
            <mxPoint x="50" y="570" as="targetPoint" />
            <Array as="points" />
            <mxPoint as="offset" />
          </mxGeometry>
        </mxCell>
        <mxCell id="xAgPbRv_ltSVWjLPTkQ9-39" value="N" style="rounded=0;jumpStyle=arc;orthogonalLoop=1;jettySize=auto;html=1;endArrow=classic;endFill=1;strokeColor=#FF9933;fontSize=11;entryX=0.5;entryY=1;entryDx=0;entryDy=0;exitX=0;exitY=0.5;exitDx=0;exitDy=0;strokeWidth=3;fillColor=#d5e8d4;" parent="WMpTFZEWbzHxxc1Yh5aS-1" source="xAgPbRv_ltSVWjLPTkQ9-17" edge="1">
          <mxGeometry relative="1" as="geometry">
            <mxPoint x="470" y="490" as="sourcePoint" />
            <mxPoint x="460" y="450" as="targetPoint" />
            <Array as="points">
              <mxPoint x="460" y="470" />
            </Array>
          </mxGeometry>
        </mxCell>
        <mxCell id="xAgPbRv_ltSVWjLPTkQ9-24" value="Y" style="edgeStyle=orthogonalEdgeStyle;rounded=0;jumpStyle=arc;orthogonalLoop=1;jettySize=auto;html=1;endArrow=classic;endFill=1;strokeColor=#82b366;fontSize=11;fillColor=#d5e8d4;strokeWidth=3;exitX=0.5;exitY=1;exitDx=0;exitDy=0;entryX=0;entryY=0.5;entryDx=0;entryDy=0;" parent="WMpTFZEWbzHxxc1Yh5aS-1" source="xAgPbRv_ltSVWjLPTkQ9-13" target="xAgPbRv_ltSVWjLPTkQ9-16" edge="1">
          <mxGeometry relative="1" as="geometry">
            <mxPoint x="290" y="430" as="sourcePoint" />
            <mxPoint x="340" y="470" as="targetPoint" />
          </mxGeometry>
        </mxCell>
        <mxCell id="xAgPbRv_ltSVWjLPTkQ9-56" style="edgeStyle=none;rounded=0;orthogonalLoop=1;jettySize=auto;html=1;strokeColor=#82b366;strokeWidth=3;fillColor=#d5e8d4;endFill=1;" parent="WMpTFZEWbzHxxc1Yh5aS-1" source="xAgPbRv_ltSVWjLPTkQ9-35" target="xAgPbRv_ltSVWjLPTkQ9-37" edge="1">
          <mxGeometry relative="1" as="geometry" />
        </mxCell>
        <mxCell id="xAgPbRv_ltSVWjLPTkQ9-35" value="Develop System Code &lt;i&gt;for SAs&lt;/i&gt;" style="shape=ext;rounded=1;html=1;whiteSpace=wrap;fontSize=12;" parent="WMpTFZEWbzHxxc1Yh5aS-1" vertex="1">
          <mxGeometry x="520" y="690" width="80" height="40" as="geometry" />
        </mxCell>
        <mxCell id="xAgPbRv_ltSVWjLPTkQ9-44" style="edgeStyle=none;rounded=0;orthogonalLoop=1;jettySize=auto;html=1;entryX=0.5;entryY=0;entryDx=0;entryDy=0;" parent="WMpTFZEWbzHxxc1Yh5aS-1" source="xAgPbRv_ltSVWjLPTkQ9-22" target="xAgPbRv_ltSVWjLPTkQ9-49" edge="1">
          <mxGeometry relative="1" as="geometry">
            <mxPoint x="640" y="669" as="targetPoint" />
            <Array as="points">
              <mxPoint x="660" y="649" />
            </Array>
          </mxGeometry>
        </mxCell>
        <mxCell id="xAgPbRv_ltSVWjLPTkQ9-5" value="end" style="shape=mxgraph.bpmn.shape;html=1;verticalLabelPosition=bottom;labelBackgroundColor=#ffffff;verticalAlign=top;align=center;perimeter=ellipsePerimeter;outlineConnect=0;outline=end;symbol=general;fontSize=10;" parent="WMpTFZEWbzHxxc1Yh5aS-1" vertex="1">
          <mxGeometry x="650" y="880" width="20" height="18" as="geometry" />
        </mxCell>
        <mxCell id="xAgPbRv_ltSVWjLPTkQ9-53" value="N" style="edgeStyle=none;rounded=0;orthogonalLoop=1;jettySize=auto;html=1;entryX=1;entryY=0.5;entryDx=0;entryDy=0;exitX=1;exitY=0.5;exitDx=0;exitDy=0;strokeWidth=3;fillColor=#d5e8d4;endFill=1;strokeColor=#FF9933;jumpStyle=arc;" parent="WMpTFZEWbzHxxc1Yh5aS-1" source="xAgPbRv_ltSVWjLPTkQ9-49" target="xAgPbRv_ltSVWjLPTkQ9-35" edge="1">
          <mxGeometry relative="1" as="geometry">
            <Array as="points">
              <mxPoint x="700" y="770" />
              <mxPoint x="700" y="730" />
              <mxPoint x="700" y="710" />
            </Array>
          </mxGeometry>
        </mxCell>
        <mxCell id="xAgPbRv_ltSVWjLPTkQ9-52" style="rounded=0;orthogonalLoop=1;jettySize=auto;html=1;jumpStyle=arc;strokeColor=#82b366;strokeWidth=3;fillColor=#d5e8d4;endFill=1;entryX=0;entryY=0.5;entryDx=0;entryDy=0;" parent="WMpTFZEWbzHxxc1Yh5aS-1" source="xAgPbRv_ltSVWjLPTkQ9-37" target="xAgPbRv_ltSVWjLPTkQ9-49" edge="1">
          <mxGeometry relative="1" as="geometry">
            <mxPoint x="640" y="790" as="targetPoint" />
          </mxGeometry>
        </mxCell>
        <mxCell id="xAgPbRv_ltSVWjLPTkQ9-43" value="" style="edgeStyle=none;rounded=0;jumpStyle=arc;orthogonalLoop=1;jettySize=auto;html=1;endArrow=classic;endFill=1;strokeColor=#82b366;fontSize=11;fillColor=#d5e8d4;strokeWidth=3;exitX=0.5;exitY=1;exitDx=0;exitDy=0;entryX=0.5;entryY=0;entryDx=0;entryDy=0;" parent="WMpTFZEWbzHxxc1Yh5aS-1" source="xAgPbRv_ltSVWjLPTkQ9-10" target="xAgPbRv_ltSVWjLPTkQ9-57" edge="1">
          <mxGeometry relative="1" as="geometry">
            <mxPoint x="1110" y="740" as="sourcePoint" />
            <mxPoint x="1110" y="770" as="targetPoint" />
          </mxGeometry>
        </mxCell>
        <mxCell id="xAgPbRv_ltSVWjLPTkQ9-58" value="" style="edgeStyle=none;rounded=0;jumpStyle=arc;orthogonalLoop=1;jettySize=auto;html=1;endArrow=classic;endFill=1;strokeColor=#82b366;fontSize=11;fillColor=#d5e8d4;strokeWidth=3;exitX=0.5;exitY=1;exitDx=0;exitDy=0;entryX=0.5;entryY=0;entryDx=0;entryDy=0;" parent="WMpTFZEWbzHxxc1Yh5aS-1" source="xAgPbRv_ltSVWjLPTkQ9-57" target="xAgPbRv_ltSVWjLPTkQ9-22" edge="1">
          <mxGeometry relative="1" as="geometry">
            <mxPoint x="570" y="560" as="sourcePoint" />
            <mxPoint x="675.8399999999999" y="517.0800000000002" as="targetPoint" />
          </mxGeometry>
        </mxCell>
        <mxCell id="xAgPbRv_ltSVWjLPTkQ9-60" value="" style="edgeStyle=none;rounded=0;orthogonalLoop=1;jettySize=auto;html=1;exitX=0.5;exitY=1;exitDx=0;exitDy=0;strokeColor=#82b366;strokeWidth=3;fillColor=#d5e8d4;endFill=1;entryX=0.5;entryY=0;entryDx=0;entryDy=0;" parent="WMpTFZEWbzHxxc1Yh5aS-1" source="xAgPbRv_ltSVWjLPTkQ9-59" target="xAgPbRv_ltSVWjLPTkQ9-5" edge="1">
          <mxGeometry relative="1" as="geometry">
            <mxPoint x="670" y="810" as="sourcePoint" />
            <mxPoint x="610" y="828" as="targetPoint" />
            <Array as="points" />
          </mxGeometry>
        </mxCell>
      </root>
    </mxGraphModel>
  </diagram>
</mxfile>
